<svg style="display:none">
    <symbol id="moodSmile" xmlns="http://www.w3.org/2000/svg" viewBox="0 0 24 24" fill="none" stroke="currentColor" stroke-width="2" stroke-linecap="round" stroke-linejoin="round" class="icon icon-tabler icons-tabler-outline icon-tabler-mood-smile"><path stroke="none" d="M0 0h24v24H0z" fill="none" /><path d="M12 12m-9 0a9 9 0 1 0 18 0a9 9 0 1 0 -18 0" /><path d="M9 10l.01 0" /><path d="M15 10l.01 0" /><path d="M9.5 15a3.5 3.5 0 0 0 5 0" /></symbol>
    <symbol id="moodCheck" xmlns="http://www.w3.org/2000/svg" viewBox="0 0 24 24" fill="none" stroke="currentColor" stroke-width="2" stroke-linecap="round" stroke-linejoin="round" class="icon icon-tabler icons-tabler-outline icon-tabler-mood-check"><path stroke="none" d="M0 0h24v24H0z" fill="none" /><path d="M20.925 13.163a8.998 8.998 0 0 0 -8.925 -10.163a9 9 0 0 0 0 18" /><path d="M9 10h.01" /><path d="M15 10h.01" /><path d="M9.5 15c.658 .64 1.56 1 2.5 1s1.842 -.36 2.5 -1" /><path d="M15 19l2 2l4 -4" /></symbol>
    <symbol id="friends" xmlns="http://www.w3.org/2000/svg" viewBox="0 0 24 24" fill="none" stroke="currentColor" stroke-width="2" stroke-linecap="round" stroke-linejoin="round" class="icon icon-tabler icons-tabler-outline icon-tabler-friends"><path stroke="none" d="M0 0h24v24H0z" fill="none" /><path d="M7 5m-2 0a2 2 0 1 0 4 0a2 2 0 1 0 -4 0" /><path d="M5 22v-5l-1 -1v-4a1 1 0 0 1 1 -1h4a1 1 0 0 1 1 1v4l-1 1v5" /><path d="M17 5m-2 0a2 2 0 1 0 4 0a2 2 0 1 0 -4 0" /><path d="M15 22v-4h-2l2 -6a1 1 0 0 1 1 -1h2a1 1 0 0 1 1 1l2 6h-2v4" /></symbol>
    <symbol id="ShoppingCart" width="20" height="20" viewBox="0 0 20 20" fill="none" xmlns="http://www.w3.org/2000/svg"><path d="M14.9997 5.00033H13.333C13.333 3.15866 11.8413 1.66699 9.99968 1.66699C8.15801 1.66699 6.66634 3.15866 6.66634 5.00033H4.99967C4.08301 5.00033 3.33301 5.75033 3.33301 6.66699V16.667C3.33301 17.5837 4.08301 18.3337 4.99967 18.3337H14.9997C15.9163 18.3337 16.6663 17.5837 16.6663 16.667V6.66699C16.6663 5.75033 15.9163 5.00033 14.9997 5.00033ZM9.99968 3.33366C10.9163 3.33366 11.6663 4.08366 11.6663 5.00033H8.33301C8.33301 4.08366 9.08301 3.33366 9.99968 3.33366ZM14.9997 16.667H4.99967V6.66699H6.66634V8.33366C6.66634 8.79199 7.04134 9.16699 7.49967 9.16699C7.95801 9.16699 8.33301 8.79199 8.33301 8.33366V6.66699H11.6663V8.33366C11.6663 8.79199 12.0413 9.16699 12.4997 9.16699C12.958 9.16699 13.333 8.79199 13.333 8.33366V6.66699H14.9997V16.667Z" fill="currentColor"/></symbol>
    <symbol id="ChevronLeft" xmlns="http://www.w3.org/2000/svg" fill="none" viewBox="0 0 24 24" stroke="currentColor"><path stroke-linecap="round" stroke-linejoin="round" d="M15.75 19.5L8.25 12l7.5-7.5" /></symbol>
	<symbol id="ChevronRight" xmlns="http://www.w3.org/2000/svg" viewBox="0 0 32 32" fill="currentColor"><path fill-rule="evenodd" clip-rule="evenodd" d="M11.057 7.05721C11.5777 6.53651 12.4219 6.53651 12.9426 7.05721L20.9426 15.0572C21.4633 15.5779 21.4633 16.4221 20.9426 16.9428L12.9426 24.9428C12.4219 25.4635 11.5777 25.4635 11.057 24.9428C10.5363 24.4221 10.5363 23.5779 11.057 23.0572L18.1142 16L11.057 8.94283C10.5363 8.42213 10.5363 7.57791 11.057 7.05721Z"/></symbol>
</svg>